# xmcd
#
# Track frame offsets: 
#        183
#        14393
#        36365
#        53765
#        74225
#        91658
#        109000
#        121000
#        140173
#        153838
#        168270
#        187870
#        202718
#        221465
#        238873
#
# Disc length: 3426 seconds
#
# Revision: 0
# Processed by: cddbd v1.4PL0 Copyright (c) Steve Scherf et al.
# Submitted via: ExactAudioCopy v0.95a3
#
DISCID=c60d600f
DTITLE=Christine Lakeland - Fireworks
DYEAR=1989
DGENRE=
TTITLE0=Details
TTITLE1=Borrowed Time
TTITLE2=The Kid
TTITLE3=Dream Or Cry
TTITLE4=My Baby Blues
TTITLE5=Temptation
TTITLE6=Let Me Give It To You
TTITLE7=Everything Makes Me Nervous
TTITLE8=Tar and Feathers
TTITLE9=Mr. Completely
TTITLE10=I Think I'm Losing My Mind
TTITLE11=Bad Habits
TTITLE12=Roll With It
TTITLE13=Movin' Blues
TTITLE14=Everything Is Ok
EXTD=
EXTT0=
EXTT1=
EXTT2=
EXTT3=
EXTT4=
EXTT5=
EXTT6=
EXTT7=
EXTT8=
EXTT9=
EXTT10=
EXTT11=
EXTT12=
EXTT13=
EXTT14=
PLAYORDER=
